<svg viewBox="0 0 1298 400" xmlns="http://www.w3.org/2000/svg"><g><g><g><g><g><line x1="40" y1="378" x2="35" y2="378" style="visibility: inherit;" fill="rgb(0, 0, 0)" stroke="rgb(204, 204, 204)" stroke-width="1px"></line><line x1="40" y1="340.2" x2="35" y2="340.2" style="visibility: inherit;" fill="rgb(0, 0, 0)" stroke="rgb(204, 204, 204)" stroke-width="1px"></line><line x1="40" y1="302.40000000000003" x2="35" y2="302.40000000000003" style="visibility: inherit;" fill="rgb(0, 0, 0)" stroke="rgb(204, 204, 204)" stroke-width="1px"></line><line x1="40" y1="264.59999999999997" x2="35" y2="264.59999999999997" style="visibility: inherit;" fill="rgb(0, 0, 0)" stroke="rgb(204, 204, 204)" stroke-width="1px"></line><line x1="40" y1="226.79999999999998" x2="35" y2="226.79999999999998" style="visibility: inherit;" fill="rgb(0, 0, 0)" stroke="rgb(204, 204, 204)" stroke-width="1px"></line><line x1="40" y1="189" x2="35" y2="189" style="visibility: inherit;" fill="rgb(0, 0, 0)" stroke="rgb(204, 204, 204)" stroke-width="1px"></line><line x1="40" y1="151.20000000000002" x2="35" y2="151.20000000000002" style="visibility: inherit;" fill="rgb(0, 0, 0)" stroke="rgb(204, 204, 204)" stroke-width="1px"></line><line x1="40" y1="113.40000000000002" x2="35" y2="113.40000000000002" style="visibility: inherit;" fill="rgb(0, 0, 0)" stroke="rgb(204, 204, 204)" stroke-width="1px"></line><line x1="40" y1="75.59999999999998" x2="35" y2="75.59999999999998" style="visibility: inherit;" fill="rgb(0, 0, 0)" stroke="rgb(204, 204, 204)" stroke-width="1px"></line><line x1="40" y1="37.79999999999999" x2="35" y2="37.79999999999999" style="visibility: inherit;" fill="rgb(0, 0, 0)" stroke="rgb(204, 204, 204)" stroke-width="1px"></line><line x1="40" y1="0" x2="35" y2="0" style="visibility: inherit;" fill="rgb(0, 0, 0)" stroke="rgb(204, 204, 204)" stroke-width="1px"></line></g><g transform="translate(30, 0)"><text x="0" y="378" dx="0em" dy="0.3em" style="text-anchor: end; visibility: hidden; font-family: Roboto, sans-serif; font-size: 12px; font-weight: 200;" fill="rgb(50, 49, 63)" stroke="none" stroke-width="1px">3.5</text><text x="0" y="340.2" dx="0em" dy="0.3em" style="text-anchor: end; visibility: inherit; font-family: Roboto, sans-serif; font-size: 12px; font-weight: 200;" fill="rgb(50, 49, 63)" stroke="none" stroke-width="1px">4</text><text x="0" y="302.40000000000003" dx="0em" dy="0.3em" style="text-anchor: end; visibility: inherit; font-family: Roboto, sans-serif; font-size: 12px; font-weight: 200;" fill="rgb(50, 49, 63)" stroke="none" stroke-width="1px">4.5</text><text x="0" y="264.59999999999997" dx="0em" dy="0.3em" style="text-anchor: end; visibility: inherit; font-family: Roboto, sans-serif; font-size: 12px; font-weight: 200;" fill="rgb(50, 49, 63)" stroke="none" stroke-width="1px">5</text><text x="0" y="226.79999999999998" dx="0em" dy="0.3em" style="text-anchor: end; visibility: inherit; font-family: Roboto, sans-serif; font-size: 12px; font-weight: 200;" fill="rgb(50, 49, 63)" stroke="none" stroke-width="1px">5.5</text><text x="0" y="189" dx="0em" dy="0.3em" style="text-anchor: end; visibility: inherit; font-family: Roboto, sans-serif; font-size: 12px; font-weight: 200;" fill="rgb(50, 49, 63)" stroke="none" stroke-width="1px">6</text><text x="0" y="151.20000000000002" dx="0em" dy="0.3em" style="text-anchor: end; visibility: inherit; font-family: Roboto, sans-serif; font-size: 12px; font-weight: 200;" fill="rgb(50, 49, 63)" stroke="none" stroke-width="1px">6.5</text><text x="0" y="113.40000000000002" dx="0em" dy="0.3em" style="text-anchor: end; visibility: inherit; font-family: Roboto, sans-serif; font-size: 12px; font-weight: 200;" fill="rgb(50, 49, 63)" stroke="none" stroke-width="1px">7</text><text x="0" y="75.59999999999998" dx="0em" dy="0.3em" style="text-anchor: end; visibility: inherit; font-family: Roboto, sans-serif; font-size: 12px; font-weight: 200;" fill="rgb(50, 49, 63)" stroke="none" stroke-width="1px">7.5</text><text x="0" y="37.79999999999999" dx="0em" dy="0.3em" style="text-anchor: end; visibility: inherit; font-family: Roboto, sans-serif; font-size: 12px; font-weight: 200;" fill="rgb(50, 49, 63)" stroke="none" stroke-width="1px">8</text><text x="0" y="0" dx="0em" dy="0.3em" style="text-anchor: end; visibility: hidden; font-family: Roboto, sans-serif; font-size: 12px; font-weight: 200;" fill="rgb(50, 49, 63)" stroke="none" stroke-width="1px">8.5</text></g><line x1="40" y1="0" x2="40" y2="378" fill="rgb(0, 0, 0)" stroke="rgb(204, 204, 204)" stroke-width="1px"></line></g></g><g transform="translate(40, 0)" clip-path="url(#clip_0)"><clipPath id="clip_0"><rect width="1258" height="378"></rect></clipPath><g><g><g><line x1="0" y1="0" x2="0" y2="378" fill="rgb(0, 0, 0)" stroke="rgb(60, 60, 60)" stroke-width="1px" opacity="0.25"></line><line x1="104.83333333333333" y1="0" x2="104.83333333333333" y2="378" fill="rgb(0, 0, 0)" stroke="rgb(60, 60, 60)" stroke-width="1px" opacity="0.25"></line><line x1="209.66666666666666" y1="0" x2="209.66666666666666" y2="378" fill="rgb(0, 0, 0)" stroke="rgb(60, 60, 60)" stroke-width="1px" opacity="0.25"></line><line x1="314.5" y1="0" x2="314.5" y2="378" fill="rgb(0, 0, 0)" stroke="rgb(60, 60, 60)" stroke-width="1px" opacity="0.25"></line><line x1="419.3333333333333" y1="0" x2="419.3333333333333" y2="378" fill="rgb(0, 0, 0)" stroke="rgb(60, 60, 60)" stroke-width="1px" opacity="0.25"></line><line x1="524.1666666666667" y1="0" x2="524.1666666666667" y2="378" fill="rgb(0, 0, 0)" stroke="rgb(60, 60, 60)" stroke-width="1px" opacity="0.25"></line><line x1="629" y1="0" x2="629" y2="378" fill="rgb(0, 0, 0)" stroke="rgb(60, 60, 60)" stroke-width="1px" opacity="0.25"></line><line x1="733.8333333333334" y1="0" x2="733.8333333333334" y2="378" fill="rgb(0, 0, 0)" stroke="rgb(60, 60, 60)" stroke-width="1px" opacity="0.25"></line><line x1="838.6666666666666" y1="0" x2="838.6666666666666" y2="378" fill="rgb(0, 0, 0)" stroke="rgb(60, 60, 60)" stroke-width="1px" opacity="0.25"></line><line x1="943.5" y1="0" x2="943.5" y2="378" fill="rgb(0, 0, 0)" stroke="rgb(60, 60, 60)" stroke-width="1px" opacity="0.25"></line><line x1="1048.3333333333335" y1="0" x2="1048.3333333333335" y2="378" fill="rgb(0, 0, 0)" stroke="rgb(60, 60, 60)" stroke-width="1px" opacity="0.25"></line><line x1="1153.1666666666665" y1="0" x2="1153.1666666666665" y2="378" fill="rgb(0, 0, 0)" stroke="rgb(60, 60, 60)" stroke-width="1px" opacity="0.25"></line><line x1="1258" y1="0" x2="1258" y2="378" fill="rgb(0, 0, 0)" stroke="rgb(60, 60, 60)" stroke-width="1px" opacity="0.25"></line></g><g><line x1="0" y1="378" x2="1258" y2="378" fill="rgb(0, 0, 0)" stroke="rgb(60, 60, 60)" stroke-width="1px" opacity="0.25"></line><line x1="0" y1="340.2" x2="1258" y2="340.2" fill="rgb(0, 0, 0)" stroke="rgb(60, 60, 60)" stroke-width="1px" opacity="0.25"></line><line x1="0" y1="302.40000000000003" x2="1258" y2="302.40000000000003" fill="rgb(0, 0, 0)" stroke="rgb(60, 60, 60)" stroke-width="1px" opacity="0.25"></line><line x1="0" y1="264.59999999999997" x2="1258" y2="264.59999999999997" fill="rgb(0, 0, 0)" stroke="rgb(60, 60, 60)" stroke-width="1px" opacity="0.25"></line><line x1="0" y1="226.79999999999998" x2="1258" y2="226.79999999999998" fill="rgb(0, 0, 0)" stroke="rgb(60, 60, 60)" stroke-width="1px" opacity="0.25"></line><line x1="0" y1="189" x2="1258" y2="189" fill="rgb(0, 0, 0)" stroke="rgb(60, 60, 60)" stroke-width="1px" opacity="0.25"></line><line x1="0" y1="151.20000000000002" x2="1258" y2="151.20000000000002" fill="rgb(0, 0, 0)" stroke="rgb(60, 60, 60)" stroke-width="1px" opacity="0.25"></line><line x1="0" y1="113.40000000000002" x2="1258" y2="113.40000000000002" fill="rgb(0, 0, 0)" stroke="rgb(60, 60, 60)" stroke-width="1px" opacity="0.25"></line><line x1="0" y1="75.59999999999998" x2="1258" y2="75.59999999999998" fill="rgb(0, 0, 0)" stroke="rgb(60, 60, 60)" stroke-width="1px" opacity="0.25"></line><line x1="0" y1="37.79999999999999" x2="1258" y2="37.79999999999999" fill="rgb(0, 0, 0)" stroke="rgb(60, 60, 60)" stroke-width="1px" opacity="0.25"></line><line x1="0" y1="0" x2="1258" y2="0" fill="rgb(0, 0, 0)" stroke="rgb(60, 60, 60)" stroke-width="1px" opacity="0.25"></line></g></g></g><g><g><line x1="0" y1="642.6" x2="1258" y2="642.6" fill="rgb(0, 0, 0)" stroke="rgb(153, 153, 153)" stroke-width="1.5px"></line></g></g><g><g><line x1="104.83333333333333" y1="0" x2="104.83333333333333" y2="378" fill="rgb(0, 0, 0)" stroke="rgb(153, 153, 153)" stroke-width="1.5px"></line></g></g><g><g><g><g><g><path stroke="rgb(255, 112, 67)" stroke-width="2px" d="M123.70333333333333,-5.1463496310164665L125.80000000000001,3.414716978411695L127.89666666666668,23.46686144590744L129.99333333333334,39.036017724789815L132.09,45.148588369571094L134.18666666666667,55.62329443625055L136.28333333333333,57.71203967575693L138.38,61.805290024871375L140.47666666666666,57.58778926501215L142.57333333333332,55.258486342027204L144.67000000000002,71.63115540772164L146.76666666666668,58.14993771567713L148.86333333333334,74.00977198684788L150.96,59.782891969425414L153.05666666666667,61.29603802498164L155.15333333333334,85.39648449439457L157.25,84.02220296688293L159.3466666666667,80.84743242290095L161.44333333333333,85.02789183298636L163.54,96.32411065856073L165.63666666666666,85.3983657203045L167.73333333333332,91.15631616104791L169.83,93.56197627976415L171.92666666666665,95.678332863172L174.02333333333334,97.92528794165473L176.12,88.02666860565331L178.21666666666667,91.97534716327938L180.31333333333333,105.49587448356672L182.41,109.63538688311647L184.50666666666666,123.19921069585992L186.60333333333335,119.57538685255763L188.7,118.12437746481955L190.79666666666668,123.816169299619L192.89333333333332,136.57749569907165L194.99,146.7369063579233L197.08666666666667,144.97928782690065L199.18333333333334,146.30235724217644L201.28,128.00513977751433L203.37666666666664,132.26124289376745L205.47333333333333,117.14918988875321L207.57000000000002,142.63092506640777L209.66666666666666,134.24588200510885L211.76333333333332,126.52806036147511L213.86,120.62299588483668L215.95666666666665,127.86489082315094L218.05333333333334,109.62427400192807L220.14999999999998,115.05031009818171L222.24666666666667,130.06995320979362L224.34333333333333,128.70151912131038L226.44,113.80739050720807L228.53666666666666,123.3902659083295L230.63333333333333,129.46206634431442L232.73,125.22549389594404L234.82666666666668,129.56157754179017L236.92333333333332,132.30136707255951L239.02,148.28266266602114L241.11666666666667,140.07861676465174L243.21333333333334,150.98749148518263L245.31,161.0322838620569L247.40666666666667,158.81189442612083L249.50333333333333,140.5128905924401L251.60000000000002,138.60278318358905L253.69666666666666,142.35561857958697L255.79333333333335,127.82979189360182L257.89,138.08884498479387L259.9866666666667,139.37172152639883L262.08333333333337,133.51424850726997L264.18,131.2267391068034L266.27666666666664,139.56235793246583L268.37333333333333,137.38349706538767L270.46999999999997,134.78234265451582L272.56666666666666,156.11765495184034L274.6633333333333,163.52643319632395L276.76,168.71840241352191L278.8566666666667,139.59643222570105L280.9533333333333,136.02600890207097L283.05,138.93695841436272L285.14666666666665,158.82625631692818L287.24333333333334,149.54029091479066L289.34000000000003,126.87561177421621L291.43666666666667,144.88356187348967L293.53333333333336,145.2622145319307L295.63,166.0860543050959L297.7266666666667,154.58705387822354L299.8233333333333,155.92964092678764L301.92,149.5913126932796L304.01666666666665,154.1488894836435L306.11333333333334,165.20086597778382L308.21,157.02251932727086L310.3066666666667,150.6104990536379L312.4033333333333,165.62842040386244L314.5,170.45946313098938L316.59666666666664,153.7308384773485L318.6933333333334,158.3975297282548L320.79,148.39941017093727L322.88666666666666,156.4303911892323L324.98333333333335,168.4085487394183L327.08,159.64778961352405L329.1766666666667,175.42857183940347L331.2733333333333,188.70084786133248L333.37,182.15501143286394L335.46666666666664,200.60255039304354L337.56333333333333,192.7015570912949L339.66,180.0725701495523L341.75666666666666,176.8186510374853L343.8533333333333,165.42633558098728L345.95000000000005,179.35888438692245L348.0466666666667,183.6654226426515L350.1433333333333,187.83463154579601L352.24,183.25073330369833L354.3366666666667,177.21871978263408L356.43333333333334,176.04531344306676L358.53,167.9748089154495L360.62666666666667,182.22561288833217L362.72333333333336,182.6718435630774L364.82,166.09458494338847L366.9166666666667,168.11165926071084L369.0133333333333,165.95893182046458L371.10999999999996,170.9459303813412L373.2066666666667,179.14673257572855L375.30333333333334,178.1584837287867L377.4,181.70200025619295L379.4966666666667,190.8460358165576L381.59333333333336,204.81363604681925L383.69,215.64834688077713L385.78666666666663,188.70367731791941L387.8833333333333,181.69188031042938L389.98,185.54034455588658L392.07666666666665,187.24406131727216L394.17333333333335,185.97268801106645L396.27,193.63006262048262L398.3666666666667,193.17826294460397L400.46333333333337,188.1432791778952L402.56,206.50245249208868L404.65666666666664,183.94230950794852L406.7533333333333,194.80664974285506L408.85,202.93283246656264L410.94666666666666,207.02749244868758L413.0433333333333,204.4781503611803L415.14000000000004,206.90841464602946L417.2366666666667,186.30631129982464L419.3333333333333,193.28664818431378L421.43,185.44366333380603L423.52666666666664,193.56080836710487L425.62333333333333,200.87141772900318L427.72,185.9705605983394L429.81666666666666,199.23076912877903L431.9133333333333,208.03914766501157L434.01,222.67840009803038L436.1066666666667,219.85660289451158L438.2033333333333,204.0612568111698L440.29999999999995,221.46348519632105L442.3966666666667,210.6995967025094L444.49333333333334,199.89382525173022L446.59,220.123555359168L448.68666666666667,211.67218573625274L450.78333333333336,210.3794029029333L452.88,216.82657515240453L454.9766666666667,219.99279033680403L457.0733333333333,226.77340926372793L459.17,216.3976107743012L461.26666666666665,225.8619492618219L463.36333333333334,230.82446280050138L465.46,223.06091600732717L467.5566666666666,196.01301032827323L469.65333333333336,211.02409007147565L471.75,225.93208526847133L473.84666666666664,231.35590086506224L475.9433333333334,234.58367266015063L478.04,233.40023228261379L480.13666666666666,222.5912592120976L482.23333333333335,224.75932469534936L484.33,223.56748423676527L486.4266666666667,214.69288693488144L488.5233333333333,216.97917378080191L490.62,197.99513312895476L492.71666666666664,184.8785148901902L494.81333333333333,205.4332660843827L496.91,209.66242745458473L499.00666666666666,199.41719005429377L501.1033333333333,202.14421707823064L503.20000000000005,227.30184320470207L505.2966666666667,211.66247700131248L507.3933333333333,220.13711648032853L509.49,223.18508025196664L511.5866666666667,211.54469576470538L513.6833333333333,221.88723387117673L515.78,230.26849465009866L517.8766666666667,232.5776652409869L519.9733333333334,216.6671701284789L522.0699999999999,229.4824892719116L524.1666666666667,234.98955497977292L526.2633333333333,242.3682705702612L528.36,237.46470639122896L530.4566666666667,242.63725935109477L532.5533333333333,239.55294162445077L534.65,210.40627631195073L536.7466666666667,217.99027953533937L538.8433333333334,233.41691972010497L540.9399999999999,250.97783249612553L543.0366666666666,237.60580518004838L545.1333333333333,211.8974651942106L547.23,219.24078098115038L549.3266666666666,236.59228703961796L551.4233333333334,224.82096815577765L553.52,201.47545595450174L555.6166666666667,237.92789846588957L557.7133333333334,226.58603717523687L559.8100000000001,226.95307761214897L561.9066666666666,218.71806376089287L564.0033333333333,228.87011972015878L566.1,241.984008553897L568.1966666666667,261.346991588637L570.2933333333333,255.30226767657092L572.39,249.4816421306008L574.4866666666667,240.3332537720128L576.5833333333333,234.8101761859372L578.6800000000001,226.88825781117168L580.7766666666666,251.00532109600474L582.8733333333333,239.11224218763212L584.97,236.48210224006948L587.0666666666667,242.35037775334348L589.1633333333333,238.0574579447307L591.26,238.02857449828372L593.3566666666667,263.2131670378374L595.4533333333334,251.22966398613022L597.55,230.290140920975L599.6466666666666,227.13687424069536L601.7433333333333,245.12433371189763L603.84,236.54823151375967L605.9366666666667,242.11252212969134L608.0333333333333,248.007626040266L610.13,246.199820527724L612.2266666666667,249.1465565927574L614.3233333333334,254.4198191790431L616.42,270.79174364975984L618.5166666666667,267.0879996810668L620.6133333333333,273.0844962808081L622.71,275.39817419365573L624.8066666666666,246.90173647114946L626.9033333333333,231.83195550268482L629,227.30848352805128L631.0966666666667,229.05643090662574L633.1933333333333,250.07093427334559L635.29,243.86876356693708L637.3866666666668,279.7133520274914L639.4833333333333,274.6917419904206L641.58,279.841513394936L643.6766666666667,283.7583089158678L645.7733333333333,270.867766645297L647.87,272.1769684283403L649.9666666666667,249.38371859362528L652.0633333333333,237.586233048265L654.16,250.73090898789454L656.2566666666665,267.2631754433959L658.3533333333334,264.8312341997534L660.45,246.8308924668735L662.5466666666666,244.3153566165987L664.6433333333333,224.8197735097541L666.74,243.3000879065117L668.8366666666666,246.2564979038191L670.9333333333333,262.0445370174379L673.0300000000001,260.86028506141497L675.1266666666667,253.93072372544762L677.2233333333334,233.02892678897948L679.32,255.1675432987295L681.4166666666666,248.85906479759709L683.5133333333333,260.1958378195983L685.61,267.54670992137324L687.7066666666666,262.9016080298503L689.8033333333333,263.9750656937647L691.9000000000001,264.70440312475483L693.9966666666667,274.0043942704828L696.0933333333334,272.85786811441375L698.19,275.7279922004353L700.2866666666666,269.70990872358146L702.3833333333333,261.5856223581723L704.48,260.49782773008894L706.5766666666666,254.68149365038246L708.6733333333334,272.63032807499513L710.77,279.8680488347432L712.8666666666667,278.56507917877565L714.9633333333334,271.4380007543357L717.06,281.57431587923713L719.1566666666666,287.66686194270335L721.2533333333333,270.01983205514836L723.3499999999999,282.5509779836994L725.4466666666667,284.548821424619L727.5433333333334,278.20687853287194L729.64,279.2164312731655L731.7366666666667,275.5031455070633L733.8333333333334,281.4230593318259L735.93,308.5470662280628L738.0266666666666,296.7186720183318L740.1233333333333,298.87665426080383L742.2199999999999,293.5465517911014L744.3166666666667,290.92123506025655L746.4133333333334,286.43323709938636L748.51,278.27187951549115L750.6066666666667,278.35656002130645L752.7033333333334,276.83559349874577L754.8,292.2442635089155L756.8966666666666,263.7458171385524L758.9933333333335,255.8234987365006L761.09,274.88618122737404L763.1866666666667,284.8248346519518L765.2833333333333,309.44750851822187L767.38,294.7985141899126L769.4766666666667,295.6855622950755L771.5733333333333,303.7341431631781L773.67,286.23524419868806L775.7666666666667,282.5858858990957L777.8633333333332,280.6838112788373L779.96,283.0018323300465L782.0566666666667,283.767513964068L784.1533333333333,262.6106247267074L786.25,287.7403843880264L788.3466666666667,283.5799429893832L790.4433333333333,281.84764062883494L792.54,287.3412984581115L794.6366666666668,290.57879114456904L796.7333333333333,290.2596227092024L798.83,293.38874344363666L800.9266666666667,297.50542868336953L803.0233333333333,291.5530638811643L805.12,298.4925205491576L807.2166666666667,295.025308014309L809.3133333333333,295.6182219179604L811.41,292.3910567469677L813.5066666666665,283.5376679532099L815.6033333333334,290.21327460005097L817.7,276.11764058705694L819.7966666666666,291.3868315293582L821.8933333333333,293.8697414347048L823.99,308.66468536070073L826.0866666666666,297.50714991576126L828.1833333333333,291.9384066181579L830.2800000000001,293.78589354975213L832.3766666666667,309.7418561066579L834.4733333333334,294.46082045110415L836.57,283.5643325416586L838.6666666666666,300.09005765487797L840.7633333333333,289.7468821881416L842.86,286.84877971876875L844.9566666666666,311.4983323530508L847.0533333333333,293.5668261025043L849.1500000000001,281.57755934558463L851.2466666666667,304.6829752740988L853.3433333333334,297.06303353176884L855.44,296.64253065983274L857.5366666666666,304.8128067564954L859.6333333333333,287.7593676323885L861.73,291.3395946547505L863.8266666666666,302.43427208215695L865.9233333333334,313.9190197464865L868.02,304.71354907018195L870.1166666666667,287.4483071307078L872.2133333333334,274.6642541301092L874.31,280.04496216129303L876.4066666666666,288.3709594592514L878.5033333333333,273.76671912342675L880.5999999999999,275.90975696844083L882.6966666666667,275.035948404087L884.7933333333334,285.74690519357523L886.89,292.34782611480233L888.9866666666667,294.6872024437837L891.0833333333334,291.1339617860944L893.18,300.9394195826429L895.2766666666666,305.59675805756916L897.3733333333333,294.93850878351606L899.4699999999999,296.7794903103929L901.5666666666667,301.52570917036655L903.6633333333334,304.4230149187238L905.76,309.81286244854874L907.8566666666667,285.9434857491586L909.9533333333334,289.2189086797198L912.05,283.21463263764144L914.1466666666666,280.4229363056073L916.2433333333335,281.0510820348292L918.34,291.39387233491124L920.4366666666667,296.732642828437L922.5333333333333,293.31836728275556L924.63,290.9558305503174L926.7266666666667,293.38458078868655L928.8233333333333,305.2874724112002L930.92,286.2572812677651L933.0166666666667,287.7078269363182L935.1133333333332,309.1021135354481L937.21,306.44344539788017L939.3066666666667,303.44858150569587L941.4033333333333,289.6974333577632L943.5,294.2879355700779L945.5966666666667,296.3164862413387L947.6933333333333,318.75969284648784L949.79,302.01462895557336L951.8866666666668,293.42364851287033L953.9833333333333,278.03753474981204L956.08,293.18867182034614L958.1766666666667,298.78266949235416L960.2733333333333,291.4565133165063L962.37,321.904753021642L964.4666666666667,303.99506052270203L966.5633333333333,309.50654421767393L968.66,326.20861765456675L970.7566666666665,307.54289833016685L972.8533333333334,289.7599157864302L974.95,309.8085526975661L977.0466666666666,330.82166596607385L979.1433333333333,330.7918748543026L981.24,311.24999391587744L983.3366666666666,304.15499909610855L985.4333333333333,298.42132434780183L987.5300000000001,306.3754812236714L989.6266666666667,315.10278362250847L991.7233333333334,325.6290583647283L993.82,315.12322191458895L995.9166666666666,307.60687679804533L998.0133333333333,314.6231108352969L1000.11,320.21492240938124L1002.2066666666666,307.327259491161L1004.3033333333333,323.1727837647649L1006.4000000000001,323.79124975714996L1008.4966666666667,321.8560367805595L1010.5933333333334,320.8099482096931L1012.69,322.74922110782273L1014.7866666666666,321.88474644032834L1016.8833333333333,334.6595437336428L1018.98,324.49565810969256L1021.0766666666666,335.73513370401133L1023.1733333333334,336.2679054787544L1025.27,327.3262628490202L1027.3666666666666,322.46776416387996L1029.4633333333334,322.5798343711307L1031.56,320.63116493542253L1033.6566666666668,314.2716730518297L1035.7533333333333,308.1609758617375L1037.85,311.768992667311L1039.9466666666667,332.41976683909513L1042.0433333333333,317.72082494720706L1044.1399999999999,317.04317352667385L1046.2366666666667,319.47681697305995L1048.3333333333335,324.86533701000786L1050.43,309.0205261348377L1052.5266666666666,318.93789139501393L1054.6233333333334,316.378061832858L1056.72,337.31783899180465L1058.8166666666666,324.6234022171043L1060.9133333333334,330.35776348297253L1063.01,303.22227481951984L1065.1066666666666,321.23081476658984L1067.2033333333334,313.70343476754664L1069.3,309.27198120964914L1071.3966666666668,309.1215349782309L1073.4933333333333,331.65606197052006L1075.59,320.5751921292114L1077.6866666666667,318.7638111088257L1079.7833333333333,332.27336517176514L1081.8799999999999,314.372188887605L1083.9766666666667,318.3196606836372L1086.0733333333333,328.6872624898942L1088.17,333.8681880298252L1090.2666666666667,331.390737265527L1092.3633333333332,333.2705409158348L1094.46,322.29290331537004L1096.5566666666666,317.07629389962244L1098.6533333333332,322.2403124725859L1100.75,302.11383744693046L1102.8466666666668,314.4419400871768L1104.9433333333334,337.25063905840966L1107.04,335.889225140368L1109.1366666666668,345.02771011779015L1111.2333333333333,332.41750314586943L1113.33,334.24928110810265L1115.4266666666667,337.0334171603449L1117.5233333333333,321.4293432039218L1119.6200000000001,344.9525844837545L1121.7166666666667,327.7700228277038L1123.8133333333333,329.7806407107825L1125.91,337.3934541972825L1128.0066666666667,338.31313169195346L1130.1033333333332,336.69509787198365L1132.2,333.23086243412774L1134.2966666666666,313.2226419111602L1136.3933333333334,296.6252253139325L1138.49,301.56833350684093L1140.5866666666666,317.2278774692168L1142.6833333333334,321.92905794820496L1144.78,305.67735160852254L1146.8766666666666,303.4873371736096L1148.9733333333334,306.1868964753084L1151.07,305.53539342412546L1153.1666666666665,322.3235825129104" style="fill: none;" fill="none"></path></g></g></g></g><g opacity="0.2"><g><g><g><path stroke="rgb(255, 112, 67)" stroke-width="2px" d="M119.51,-14.395042419433594L121.60666666666667,40.06531219482421L123.70333333333333,41.225077056884786L125.80000000000001,16.126903152465804L127.89666666666668,53.36320667266845L129.99333333333334,62.305025482177754L132.09,54.29748573303225L134.18666666666667,71.31483249664306L136.28333333333333,60.842702293396016L138.38,67.94227867126465L140.47666666666666,51.263322830200195L142.57333333333332,51.76512336730957L144.67000000000002,96.18766479492187L146.76666666666668,37.92934341430665L148.86333333333334,97.7986536026001L150.96,38.44304008483888L153.05666666666667,63.56572723388672L155.15333333333334,121.54686870574953L157.25,81.96079044342041L159.3466666666667,76.08529014587403L161.44333333333333,91.29857025146482L163.54,113.26842155456545L165.63666666666666,69.00975837707522L167.73333333333332,99.79323863983154L169.83,97.17046566009522L171.92666666666665,98.85286731719971L174.02333333333334,101.2957202911377L176.12,73.17874031066894L178.21666666666667,97.89836483001709L180.31333333333333,125.77666511535647L182.41,115.84465541839602L184.50666666666666,143.5449462890625L186.60333333333335,114.13965110778808L188.7,115.94786338806152L190.79666666666668,132.35385704040527L192.89333333333332,155.71948528289795L194.99,161.97602233886718L197.08666666666667,142.3428600311279L199.18333333333334,148.28696136474608L201.28,100.55931358337402L203.37666666666664,138.64539756774903L205.47333333333333,94.48111038208008L207.57000000000002,180.85352783203123L209.66666666666666,121.66831741333006L211.76333333333332,114.95132789611814L213.86,111.76539916992188L215.95666666666665,138.72773323059081L218.05333333333334,82.2633487701416L220.14999999999998,123.18936424255371L222.24666666666667,152.59941787719728L224.34333333333333,126.64886798858645L226.44,91.46619758605955L228.53666666666666,137.76457901000978L230.63333333333333,138.56976699829102L232.73,118.87063522338867L234.82666666666668,136.06570301055908L236.92333333333332,136.41105136871337L239.02,172.25460605621336L241.11666666666667,127.77254791259766L243.21333333333334,167.35080356597902L245.31,176.09947242736817L247.40666666666667,155.4813102722168L249.50333333333333,113.06438484191897L251.60000000000002,135.73762207031248L253.69666666666666,147.98487167358397L255.79333333333335,106.04105186462402L257.89,153.47742462158203L259.9866666666667,141.29603633880615L262.08333333333337,124.72803897857666L264.18,127.79547500610352L266.27666666666664,152.06578617095946L268.37333333333333,134.1152057647705L270.46999999999997,130.880611038208L272.56666666666666,188.12062339782713L274.6633333333333,174.6396005630493L276.76,176.50635623931885L278.8566666666667,95.91347694396973L280.9533333333333,130.67037391662598L283.05,143.30338268280028L285.14666666666665,188.66020317077638L287.24333333333334,135.61134281158448L289.34000000000003,92.87859306335447L291.43666666666667,171.89548702239992L293.53333333333336,145.83019351959229L295.63,197.32181396484376L297.7266666666667,137.33855323791502L299.8233333333333,157.9435214996338L301.92,140.08382034301758L304.01666666666665,160.98525466918946L306.11333333333334,181.77883071899416L308.21,144.75499935150148L310.3066666666667,140.99246864318846L312.4033333333333,188.15530242919922L314.5,177.7060272216797L316.59666666666664,128.63790149688722L318.6933333333334,165.39756660461424L320.79,133.40223083496093L322.88666666666666,168.4768627166748L324.98333333333335,186.37578506469728L327.08,146.50665092468262L329.1766666666667,199.09974517822266L331.2733333333333,208.60926189422608L333.37,172.33625679016112L335.46666666666664,228.27385883331297L337.56333333333333,180.85006713867188L339.66,161.12908973693848L341.75666666666666,171.93777236938476L343.8533333333333,148.33786239624024L345.95000000000005,200.2577075958252L348.0466666666667,190.12523002624513L350.1433333333333,194.0884449005127L352.24,176.37488594055176L354.3366666666667,168.1706995010376L356.43333333333334,174.28520393371582L358.53,155.86905212402345L360.62666666666667,203.60181884765623L362.72333333333336,183.34118957519533L364.82,141.228697013855L366.9166666666667,171.13727073669432L369.0133333333333,162.72984066009522L371.10999999999996,178.42642822265626L373.2066666666667,191.44793586730955L375.30333333333334,176.67611045837404L377.4,187.01727504730226L379.4966666666667,204.5620891571045L381.59333333333336,225.7650363922119L383.69,231.90041313171386L385.78666666666663,148.28667297363282L387.8833333333333,171.17418479919434L389.98,191.31304092407228L392.07666666666665,189.79963645935058L394.17333333333335,184.0656280517578L396.27,205.11612453460694L398.3666666666667,192.50056343078612L400.46333333333337,180.59080352783204L402.56,234.0412124633789L404.65666666666664,150.1020950317383L406.7533333333333,211.10316009521486L408.85,215.12210655212402L410.94666666666666,213.16948242187502L413.0433333333333,200.65413722991943L415.14000000000004,210.55381107330322L417.2366666666667,155.40315628051758L419.3333333333333,203.75715351104736L421.43,173.67918605804445L423.52666666666664,205.73652591705323L425.62333333333333,211.8373317718506L427.72,163.61927490234373L429.81666666666666,219.12108192443847L431.9133333333333,221.25171546936033L434.01,244.6372787475586L436.1066666666667,215.6239070892334L438.2033333333333,180.36823768615724L440.29999999999995,247.56682777404785L442.3966666666667,194.553763961792L444.49333333333334,183.6851680755615L446.59,250.4681505203247L448.68666666666667,198.99513130187987L450.78333333333336,208.44022865295412L452.88,226.49733352661133L454.9766666666667,224.74211311340332L457.0733333333333,236.94433765411375L459.17,200.83391304016115L461.26666666666665,240.05845699310302L463.36333333333334,238.2682331085205L465.46,211.4155958175659L467.5566666666666,155.4411518096924L469.65333333333336,233.5407096862793L471.75,248.29407806396486L473.84666666666664,239.49162425994874L475.9433333333334,239.42533035278322L478.04,231.6250717163086L480.13666666666666,206.37779960632324L482.23333333333335,228.01142292022703L484.33,221.77972354888917L486.4266666666667,201.38099098205566L488.5233333333333,220.40860404968262L490.62,169.51907215118408L492.71666666666664,165.20358753204346L494.81333333333333,236.26539287567138L496.91,216.0061695098877L499.00666666666666,184.04933395385743L501.1033333333333,206.23475761413576L503.20000000000005,265.0382823944092L505.2966666666667,188.20342769622803L507.3933333333333,232.84907569885254L509.49,227.75702590942385L511.5866666666667,194.0841190338135L513.6833333333333,237.4010410308838L515.78,242.84038581848145L517.8766666666667,236.04142112731935L519.9733333333334,192.8014274597168L522.0699999999999,248.70546798706053L524.1666666666667,243.25015354156494L526.2633333333333,253.43634395599364L528.36,230.10936012268067L530.4566666666667,250.39608879089357L532.5533333333333,234.92646503448486L534.65,166.68627834320068L536.7466666666667,229.36628437042236L538.8433333333334,256.5568799972534L540.9399999999999,277.31920166015624L543.0366666666666,217.54776420593262L545.1333333333333,173.3349552154541L547.23,230.25575466156008L549.3266666666666,262.6195461273193L551.4233333333334,207.16398983001707L553.52,166.4571876525879L555.6166666666667,292.60656223297116L557.7133333333334,209.57324523925783L559.8100000000001,227.5036382675171L561.9066666666666,206.36554298400878L564.0033333333333,244.09820365905762L566.1,261.65484180450443L568.1966666666667,290.39146614074707L570.2933333333333,246.23518180847168L572.39,240.7507038116455L574.4866666666667,226.61067123413088L576.5833333333333,226.52555980682374L578.6800000000001,215.00538024902343L580.7766666666666,287.1809160232544L582.8733333333333,221.27262382507323L584.97,232.5368923187256L587.0666666666667,251.1527910232544L589.1633333333333,231.61807823181152L591.26,237.98524932861326L593.3566666666667,300.990055847168L595.4533333333334,233.25440940856933L597.55,198.88085632324217L599.6466666666666,222.40697422027588L601.7433333333333,272.1055229187012L603.84,223.68407821655273L605.9366666666667,250.45895805358887L608.0333333333333,256.8502819061279L610.13,243.48811225891112L612.2266666666667,253.5666606903076L614.3233333333334,262.32971305847167L616.42,295.34963035583496L618.5166666666667,261.53238372802736L620.6133333333333,282.07924118041996L622.71,278.8686910629272L624.8066666666666,204.15707988739015L626.9033333333333,209.2272840499878L629,220.5232755661011L631.0966666666667,231.6783519744873L633.1933333333333,281.5926893234253L635.29,234.5655075073242L637.3866666666668,333.4802347183227L639.4833333333333,267.1593269348145L641.58,287.566170501709L643.6766666666667,289.6335021972656L645.7733333333333,251.53195323944092L647.87,274.14077110290526L649.9666666666667,215.19384384155273L652.0633333333333,219.8900047302246L654.16,270.44792289733886L656.2566666666665,292.06157512664794L658.3533333333334,261.1833223342896L660.45,219.83037986755372L662.5466666666666,240.54205284118652L664.6433333333333,195.5763988494873L666.74,271.02055950164794L668.8366666666666,250.69111289978028L670.9333333333333,285.7265956878662L673.0300000000001,259.08390712738037L675.1266666666667,243.53638172149658L677.2233333333334,201.67623138427734L679.32,288.3754680633545L681.4166666666666,239.39634704589844L683.5133333333333,277.2009973526001L685.61,278.57301807403564L687.7066666666666,255.93395519256592L689.8033333333333,265.58525218963626L691.9000000000001,265.79840927124025L693.9966666666667,287.9543809890747L696.0933333333334,271.13807888031005L698.19,280.0331783294678L700.2866666666666,260.6827835083008L702.3833333333333,249.3991928100586L704.48,258.86613578796386L706.5766666666666,245.95699253082276L708.6733333333334,299.5535797119141L710.77,290.7246299743652L712.8666666666667,276.61062469482425L714.9633333333334,260.7473831176758L717.06,296.77878856658936L719.1566666666666,296.80568103790284L721.2533333333333,243.54928722381592L723.3499999999999,301.34769687652584L725.4466666666667,287.54558658599854L727.5433333333334,268.69396419525145L729.64,280.73076038360597L731.7366666666667,269.93321685791017L733.8333333333334,290.3029300689697L735.93,349.2330765724182L738.0266666666666,278.97608070373536L740.1233333333333,302.1136276245117L742.2199999999999,285.55139808654786L744.3166666666667,286.98325996398927L746.4133333333334,279.701240158081L748.51,266.02984313964845L750.6066666666667,278.4835807800293L752.7033333333334,274.5541437149048L754.8,315.3572685241699L756.8966666666666,220.9981475830078L758.9933333333335,243.94002113342285L761.09,303.4802049636841L763.1866666666667,299.73281478881836L765.2833333333333,346.38151931762695L767.38,272.82502269744873L769.4766666666667,297.0161344528198L771.5733333333333,315.80701446533203L773.67,259.9868957519531L775.7666666666667,277.111848449707L777.8633333333332,277.83069934844974L779.96,286.47886390686034L782.0566666666667,284.9160364151001L784.1533333333333,230.8752908706665L786.25,325.43502388000485L788.3466666666667,277.33928089141847L790.4433333333333,279.24918708801266L792.54,295.58178520202637L794.6366666666668,295.43503017425536L796.7333333333333,289.7808700561523L798.83,298.0824245452881L800.9266666666667,303.6804565429688L803.0233333333333,282.62451667785643L805.12,308.9017055511475L807.2166666666667,289.8244892120361L809.3133333333333,296.50759277343747L811.41,287.5503089904785L813.5066666666665,270.25758476257323L815.6033333333334,300.2266845703125L817.7,254.9741895675659L819.7966666666666,314.29061794281006L821.8933333333333,297.5941062927246L823.99,330.85710124969484L826.0866666666666,280.7708467483521L828.1833333333333,283.58529167175294L830.2800000000001,296.55712394714357L832.3766666666667,333.67579994201657L834.4733333333334,271.5392669677735L836.57,267.21960067749023L838.6666666666666,324.87864532470707L840.7633333333333,274.23211898803714L842.86,282.5016260147095L844.9566666666666,348.4726613044739L847.0533333333333,266.66956672668454L849.1500000000001,263.5936592102051L851.2466666666667,339.34109916687015L853.3433333333334,285.63312091827396L855.44,296.01177635192875L857.5366666666666,317.06822090148927L859.6333333333333,262.179208946228L861.73,296.70993518829346L863.8266666666666,319.0762882232666L865.9233333333334,331.14614124298095L868.02,290.9053430557251L870.1166666666667,261.55044422149655L872.2133333333334,255.48817462921144L874.31,288.11602420806884L876.4066666666666,300.85995540618893L878.5033333333333,251.86035861968995L880.5999999999999,279.12431373596195L882.6966666666667,273.7252355575561L884.7933333333334,301.8133403778076L886.89,302.24920749664307L888.9866666666667,298.19626693725587L891.0833333333334,285.80410079956056L893.18,315.64760627746585L895.2766666666666,312.5827657699585L897.3733333333333,278.9511348724365L899.4699999999999,299.54096260070804L901.5666666666667,308.64503746032716L903.6633333333334,308.76897354125975L905.76,317.8976337432861L907.8566666666667,250.13942070007326L909.9533333333334,294.1320430755615L912.05,274.2082185745239L914.1466666666666,276.23539180755614L916.2433333333335,281.9933006286621L918.34,306.90805778503415L920.4366666666667,304.74079856872555L922.5333333333333,288.1969539642334L924.63,287.41202545166016L926.7266666666667,297.02770614624023L928.8233333333333,323.14180984497074L930.92,257.71199455261234L933.0166666666667,289.883645439148L935.1133333333332,341.19354343414307L937.21,302.45544319152833L939.3066666666667,298.9562856674194L941.4033333333333,269.07071113586426L943.5,301.1736888885498L945.5966666666667,299.35931224822997L947.6933333333333,352.42450275421146L949.79,276.8970331192017L951.8866666666668,280.53717784881593L953.9833333333333,254.9583641052246L956.08,315.9153774261475L958.1766666666667,307.1736660003662L960.2733333333333,280.46727905273434L962.37,367.57711257934574L964.4666666666667,277.130521774292L966.5633333333333,317.77376976013187L968.66,351.261727809906L970.7566666666665,279.5443193435669L972.8533333333334,263.08544197082523L974.95,339.88150806427L977.0466666666666,362.3413358688354L979.1433333333333,330.7471881866455L981.24,281.9371725082397L983.3366666666666,293.5125068664551L985.4333333333333,289.8208122253418L987.5300000000001,318.30671653747555L989.6266666666667,328.19373722076415L991.7233333333334,341.4184704780578L993.82,299.36446723937985L995.9166666666666,296.33235912323L998.0133333333333,325.1474618911743L1000.11,328.6026397705078L1002.2066666666666,287.9957651138306L1004.3033333333333,346.94107017517086L1006.4000000000001,324.7189487457276L1008.4966666666667,318.95321731567384L1010.5933333333334,319.24081535339354L1012.69,325.6581304550171L1014.7866666666666,320.5880344390869L1016.8833333333333,353.8217396736145L1018.98,309.2498296737671L1021.0766666666666,352.59434709548947L1023.1733333333334,337.06706314086915L1025.27,313.9137989044189L1027.3666666666666,315.1800161361694L1029.4633333333334,322.7479396820068L1031.56,317.7081607818604L1033.6566666666668,304.73243522644043L1035.7533333333333,298.99493007659913L1037.85,317.1810178756714L1039.9466666666667,363.39592809677123L1042.0433333333333,295.672412109375L1044.1399999999999,316.026696395874L1046.2366666666667,323.12728214263916L1048.3333333333335,332.9481170654297L1050.43,285.2533098220825L1052.5266666666666,333.8139392852783L1054.6233333333334,312.53831748962403L1056.72,368.7275047302246L1058.8166666666666,305.5817470550537L1060.9133333333334,338.95930538177487L1063.01,262.51904182434083L1065.1066666666666,348.2436246871948L1067.2033333333334,302.41236476898194L1069.3,302.6248008728027L1071.3966666666668,308.8958656311035L1073.4933333333333,365.4578524589538L1075.59,303.95388736724857L1077.6866666666667,316.04673957824707L1079.7833333333333,352.53769626617435L1081.8799999999999,287.5204244613647L1083.9766666666667,324.24086837768556L1086.0733333333333,344.23866519927975L1088.17,341.6395763397217L1090.2666666666667,327.67456111907956L1092.3633333333332,336.0902463912964L1094.46,305.8264469146729L1096.5566666666666,309.251379776001L1098.6533333333332,329.98634033203126L1100.75,271.92412490844725L1102.8466666666668,332.93409404754635L1104.9433333333334,371.46368751525875L1107.04,333.84710426330565L1109.1366666666668,358.73543758392333L1111.2333333333333,313.50219268798827L1113.33,336.99694805145265L1115.4266666666667,341.2096212387085L1117.5233333333333,298.0232322692871L1119.6200000000001,380.2374464035034L1121.7166666666667,301.99618034362794L1123.8133333333333,332.79656753540036L1125.91,348.8126744270325L1128.0066666666667,339.69264793395996L1130.1033333333332,334.2680471420288L1132.2,328.0345092773437L1134.2966666666666,283.210311126709L1136.3933333333334,271.7291004180908L1138.49,308.9829957962036L1140.5866666666666,340.7171934127808L1142.6833333333334,328.98082866668705L1144.78,281.29979209899903L1146.8766666666666,300.2023155212402L1148.9733333333334,310.23623542785646L1151.07,304.5581388473511L1153.1666666666665,347.5058661460876" style="fill: none;" fill="none"></path></g></g></g></g></g></g><g transform="translate(40, 378)" clip-path="url(#clip_1)"><clipPath id="clip_1"><rect width="1258" height="22"></rect></clipPath><g><g><line x1="0" y1="0" x2="0" y2="5" style="visibility: inherit;" fill="rgb(0, 0, 0)" stroke="rgb(204, 204, 204)" stroke-width="1px"></line><line x1="104.83333333333333" y1="0" x2="104.83333333333333" y2="5" style="visibility: inherit;" fill="rgb(0, 0, 0)" stroke="rgb(204, 204, 204)" stroke-width="1px"></line><line x1="209.66666666666666" y1="0" x2="209.66666666666666" y2="5" style="visibility: inherit;" fill="rgb(0, 0, 0)" stroke="rgb(204, 204, 204)" stroke-width="1px"></line><line x1="314.5" y1="0" x2="314.5" y2="5" style="visibility: inherit;" fill="rgb(0, 0, 0)" stroke="rgb(204, 204, 204)" stroke-width="1px"></line><line x1="419.3333333333333" y1="0" x2="419.3333333333333" y2="5" style="visibility: inherit;" fill="rgb(0, 0, 0)" stroke="rgb(204, 204, 204)" stroke-width="1px"></line><line x1="524.1666666666667" y1="0" x2="524.1666666666667" y2="5" style="visibility: inherit;" fill="rgb(0, 0, 0)" stroke="rgb(204, 204, 204)" stroke-width="1px"></line><line x1="629" y1="0" x2="629" y2="5" style="visibility: inherit;" fill="rgb(0, 0, 0)" stroke="rgb(204, 204, 204)" stroke-width="1px"></line><line x1="733.8333333333334" y1="0" x2="733.8333333333334" y2="5" style="visibility: inherit;" fill="rgb(0, 0, 0)" stroke="rgb(204, 204, 204)" stroke-width="1px"></line><line x1="838.6666666666666" y1="0" x2="838.6666666666666" y2="5" style="visibility: inherit;" fill="rgb(0, 0, 0)" stroke="rgb(204, 204, 204)" stroke-width="1px"></line><line x1="943.5" y1="0" x2="943.5" y2="5" style="visibility: inherit;" fill="rgb(0, 0, 0)" stroke="rgb(204, 204, 204)" stroke-width="1px"></line><line x1="1048.3333333333335" y1="0" x2="1048.3333333333335" y2="5" style="visibility: inherit;" fill="rgb(0, 0, 0)" stroke="rgb(204, 204, 204)" stroke-width="1px"></line><line x1="1153.1666666666665" y1="0" x2="1153.1666666666665" y2="5" style="visibility: inherit;" fill="rgb(0, 0, 0)" stroke="rgb(204, 204, 204)" stroke-width="1px"></line><line x1="1258" y1="0" x2="1258" y2="5" style="visibility: inherit;" fill="rgb(0, 0, 0)" stroke="rgb(204, 204, 204)" stroke-width="1px"></line></g><g transform="translate(0, 8)"><text x="0" y="0" dx="0em" dy="0.95em" style="text-anchor: middle; visibility: hidden; font-family: Roboto, sans-serif; font-size: 12px; font-weight: 200;" fill="rgb(50, 49, 63)" stroke="none" stroke-width="1px">-500</text><text x="104.83333333333333" y="0" dx="0em" dy="0.95em" style="text-anchor: middle; visibility: inherit; font-family: Roboto, sans-serif; font-size: 12px; font-weight: 200;" fill="rgb(50, 49, 63)" stroke="none" stroke-width="1px">0</text><text x="209.66666666666666" y="0" dx="0em" dy="0.95em" style="text-anchor: middle; visibility: inherit; font-family: Roboto, sans-serif; font-size: 12px; font-weight: 200;" fill="rgb(50, 49, 63)" stroke="none" stroke-width="1px">500</text><text x="314.5" y="0" dx="0em" dy="0.95em" style="text-anchor: middle; visibility: inherit; font-family: Roboto, sans-serif; font-size: 12px; font-weight: 200;" fill="rgb(50, 49, 63)" stroke="none" stroke-width="1px">1k</text><text x="419.3333333333333" y="0" dx="0em" dy="0.95em" style="text-anchor: middle; visibility: inherit; font-family: Roboto, sans-serif; font-size: 12px; font-weight: 200;" fill="rgb(50, 49, 63)" stroke="none" stroke-width="1px">1.5k</text><text x="524.1666666666667" y="0" dx="0em" dy="0.95em" style="text-anchor: middle; visibility: inherit; font-family: Roboto, sans-serif; font-size: 12px; font-weight: 200;" fill="rgb(50, 49, 63)" stroke="none" stroke-width="1px">2k</text><text x="629" y="0" dx="0em" dy="0.95em" style="text-anchor: middle; visibility: inherit; font-family: Roboto, sans-serif; font-size: 12px; font-weight: 200;" fill="rgb(50, 49, 63)" stroke="none" stroke-width="1px">2.5k</text><text x="733.8333333333334" y="0" dx="0em" dy="0.95em" style="text-anchor: middle; visibility: inherit; font-family: Roboto, sans-serif; font-size: 12px; font-weight: 200;" fill="rgb(50, 49, 63)" stroke="none" stroke-width="1px">3k</text><text x="838.6666666666666" y="0" dx="0em" dy="0.95em" style="text-anchor: middle; visibility: inherit; font-family: Roboto, sans-serif; font-size: 12px; font-weight: 200;" fill="rgb(50, 49, 63)" stroke="none" stroke-width="1px">3.5k</text><text x="943.5" y="0" dx="0em" dy="0.95em" style="text-anchor: middle; visibility: inherit; font-family: Roboto, sans-serif; font-size: 12px; font-weight: 200;" fill="rgb(50, 49, 63)" stroke="none" stroke-width="1px">4k</text><text x="1048.3333333333335" y="0" dx="0em" dy="0.95em" style="text-anchor: middle; visibility: inherit; font-family: Roboto, sans-serif; font-size: 12px; font-weight: 200;" fill="rgb(50, 49, 63)" stroke="none" stroke-width="1px">4.5k</text><text x="1153.1666666666665" y="0" dx="0em" dy="0.95em" style="text-anchor: middle; visibility: inherit; font-family: Roboto, sans-serif; font-size: 12px; font-weight: 200;" fill="rgb(50, 49, 63)" stroke="none" stroke-width="1px">5k</text><text x="1258" y="0" dx="0em" dy="0.95em" style="text-anchor: middle; visibility: hidden; font-family: Roboto, sans-serif; font-size: 12px; font-weight: 200;" fill="rgb(50, 49, 63)" stroke="none" stroke-width="1px">5.5k</text></g><line x1="0" y1="0" x2="1258" y2="0" fill="rgb(0, 0, 0)" stroke="rgb(204, 204, 204)" stroke-width="1px"></line></g></g></g></g></svg>